<?xml version="1.0" encoding="UTF-8"?>
<svg width="752pt" height="752pt" version="1.1" viewBox="0 0 752 752" xmlns="http://www.w3.org/2000/svg">
 <defs>
  <clipPath id="b">
   <path d="m139.21 143h473.58v469.79h-473.58z"/>
  </clipPath>
  <clipPath id="a">
   <path d="m297 139.21h40v39.789h-40z"/>
  </clipPath>
 </defs>
 <g clip-path="url(#b)">
  <path d="m376 612.61c-64.23 0-124.36-25.141-169.29-70.84-44.555-45.305-68.531-105.2-67.484-168.63l2.4453-6.3359 5.1914-3.2969c21.23-5.3477 39.207-19.672 49.332-39.289l12.273-4.6953c52.133 19.777 103.52-20.281 103.52-71.348 0-1.7578-0.25781-3.4531-0.49219-5.1484l-0.39453-3.1172 9.4727-10.934c41.102-1.4023 73.543-34.629 73.879-75.656l11.09-9.707c118.14 14.66 207.25 115.04 207.25 233.49 0 129.86-106.22 235.51-236.79 235.51zm-217.04-232.11c0.84766 55.488 22.652 107.62 61.82 147.44 41.184 41.871 96.316 64.941 155.21 64.941 119.68 0 217.06-96.789 217.06-215.77 0-105.04-76.504-194.54-179.62-212.36-5.3477 42.898-38.773 76.957-81.73 83.055v0.39453c0 53.062-43.176 96.234-96.254 96.234-8.6016 0-17.305-1.2617-25.969-3.7695-11.801 18.707-29.641 32.797-50.516 39.84z"/>
 </g>
 <path d="m454.93 336.54c-21.766 0-39.465-17.699-39.465-39.465 0-21.766 17.699-39.465 39.465-39.465 21.766 0 39.465 17.699 39.465 39.465 0.003907 21.766-17.699 39.465-39.465 39.465zm0-59.195c-10.891 0-19.734 8.8594-19.734 19.734 0 10.871 8.8398 19.734 19.734 19.734 10.891 0 19.734-8.8594 19.734-19.734s-8.8398-19.734-19.734-19.734z"/>
 <path d="m287.2 454.93c-16.316 0-29.598-13.277-29.598-29.598 0-16.316 13.281-29.598 29.598-29.598 16.32 0 29.602 13.281 29.602 29.598 0 16.32-13.281 29.598-29.602 29.598zm0-39.465c-5.4453 0-9.8633 4.4414-9.8633 9.8672s4.418 9.8672 9.8633 9.8672c5.4492 0 9.8672-4.4414 9.8672-9.8672s-4.418-9.8672-9.8672-9.8672z"/>
 <path d="m445.07 514.13c-27.211 0-49.332-22.121-49.332-49.332s22.121-49.332 49.332-49.332c27.211 0 49.332 22.121 49.332 49.332s-22.121 49.332-49.332 49.332zm0-78.93c-16.32 0-29.598 13.281-29.598 29.598 0 16.32 13.281 29.598 29.598 29.598 16.32 0 29.598-13.281 29.598-29.598s-13.281-29.598-29.598-29.598z"/>
 <path d="m395.73 376c0 10.898-8.8359 19.734-19.734 19.734s-19.73-8.8359-19.73-19.734 8.832-19.73 19.73-19.73 19.734 8.832 19.734 19.73"/>
 <path d="m356.27 494.4c0 10.895-8.8359 19.73-19.734 19.73-10.898 0-19.73-8.8359-19.73-19.73 0-10.898 8.832-19.734 19.73-19.734 10.898 0 19.734 8.8359 19.734 19.734"/>
 <path d="m277.34 504.26c0 5.4492-4.418 9.8672-9.8672 9.8672-5.4492 0-9.8672-4.418-9.8672-9.8672s4.418-9.8633 9.8672-9.8633c5.4492 0 9.8672 4.4141 9.8672 9.8633"/>
 <path d="m395.73 267.47c0 5.4492-4.418 9.8672-9.8672 9.8672-5.4492 0-9.8672-4.418-9.8672-9.8672 0-5.4492 4.418-9.8672 9.8672-9.8672 5.4492 0 9.8672 4.418 9.8672 9.8672"/>
 <path d="m553.59 346.4c0 5.4492-4.418 9.8672-9.8672 9.8672-5.4492 0-9.8633-4.418-9.8633-9.8672 0-5.4492 4.4141-9.8672 9.8633-9.8672 5.4492 0 9.8672 4.418 9.8672 9.8672"/>
 <path d="m533.86 464.8c0 5.4492-4.418 9.8672-9.8672 9.8672-5.4492 0-9.8672-4.418-9.8672-9.8672s4.418-9.8672 9.8672-9.8672c5.4492 0 9.8672 4.418 9.8672 9.8672"/>
 <path d="m198.41 405.6c0 5.4492-4.418 9.8633-9.8672 9.8633s-9.8672-4.4141-9.8672-9.8633c0-5.4492 4.418-9.8672 9.8672-9.8672s9.8672 4.418 9.8672 9.8672"/>
 <g clip-path="url(#a)">
  <path d="m336.54 158.95c0 10.895-8.832 19.73-19.73 19.73-10.898 0-19.734-8.8359-19.734-19.73 0-10.898 8.8359-19.734 19.734-19.734 10.898 0 19.73 8.8359 19.73 19.734"/>
 </g>
 <path d="m514.13 376c0 10.898-8.8359 19.734-19.73 19.734-10.898 0-19.734-8.8359-19.734-19.734s8.8359-19.73 19.734-19.73c10.895 0 19.73 8.832 19.73 19.73"/>
 <path d="m237.88 297.07c-21.766 0-39.465-17.699-39.465-39.465s17.699-39.465 39.465-39.465 39.465 17.699 39.465 39.465-17.703 39.465-39.465 39.465zm0-59.195c-10.875 0-19.734 8.8594-19.734 19.73 0 10.871 8.8594 19.734 19.734 19.734 10.871 0 19.734-8.8594 19.734-19.734-0.003906-10.871-8.8633-19.73-19.734-19.73z"/>
</svg>
